<svg xmlns="http://www.w3.org/2000/svg" xmlns:xlink="http://www.w3.org/1999/xlink" width="16" height="16" viewBox="0 0 16 16">
    <defs>
        <path id="a" d="M0 0h16v16H0z"/>
    </defs>
    <g fill="none" fill-rule="evenodd">
        <g>
            <mask id="b" fill="#fff">
                <use xlink:href="#a"/>
            </mask>
            <path fill="#28AF2B" d="M8 15c-3.86 0-7-3.14-7-7s3.14-7 7-7 7 3.14 7 7-3.14 7-7 7M8 0C3.588 0 0 3.59 0 8s3.588 8 8 8 8-3.59 8-8-3.588-8-8-8" mask="url(#b)"/>
        </g>
        <path fill="#28AF2B" d="M12.287 5.016a.518.518 0 0 0-.726-.001l-4.91 4.91-2.274-2.272a.517.517 0 0 0-.728 0 .515.515 0 0 0 .001.725l2.638 2.638a.521.521 0 0 0 .727 0l5.272-5.273a.513.513 0 0 0 0-.727"/>
    </g>
</svg>
